<svg xmlns="http://www.w3.org/2000/svg" width="720" height="420" viewBox="0 0 720 420" font-family="system-ui, sans-serif" font-size="14">
  <rect x="10" y="10" width="700" height="400" rx="10" fill="#f8fafc" stroke="#0f172a" stroke-width="2" stroke-dasharray="6 4"/>
  <text x="24" y="34" font-weight="700" fill="#0f172a">AWS Account 880636108741</text>
  <rect x="40" y="60" width="500" height="320" rx="8" fill="#eff6ff" stroke="#1d4ed8" stroke-width="2"/>
  <text x="54" y="84" font-weight="700" fill="#1d4ed8">Region ap-south-1 (Mumbai)</text>
  <rect x="60" y="110" width="220" height="240" rx="6" fill="#ffffff" stroke="#0369a1" stroke-width="1.5"/>
  <text x="72" y="134" font-weight="600" fill="#0369a1">Availability Zone a</text>
  <rect x="80" y="160" width="180" height="50" rx="4" fill="#dbeafe" stroke="#0369a1"/>
  <text x="170" y="190" text-anchor="middle" fill="#0f172a">EC2 web instance</text>
  <rect x="80" y="240" width="180" height="50" rx="4" fill="#dbeafe" stroke="#0369a1"/>
  <text x="170" y="270" text-anchor="middle" fill="#0f172a">RDS primary</text>
  <rect x="300" y="110" width="220" height="240" rx="6" fill="#ffffff" stroke="#0369a1" stroke-width="1.5"/>
  <text x="312" y="134" font-weight="600" fill="#0369a1">Availability Zone b</text>
  <rect x="320" y="160" width="180" height="50" rx="4" fill="#dbeafe" stroke="#0369a1"/>
  <text x="410" y="190" text-anchor="middle" fill="#0f172a">EC2 web instance</text>
  <rect x="320" y="240" width="180" height="50" rx="4" fill="#dbeafe" stroke="#0369a1"/>
  <text x="410" y="270" text-anchor="middle" fill="#0f172a">RDS standby (Multi-AZ)</text>
  <line x1="260" y1="265" x2="320" y2="265" stroke="#0369a1" stroke-width="1.5" stroke-dasharray="4 3"/>
  <rect x="180" y="320" width="220" height="24" rx="12" fill="#1d4ed8"/>
  <text x="290" y="337" text-anchor="middle" fill="#ffffff" font-size="12">Application Load Balancer (both AZs)</text>
  <rect x="570" y="60" width="120" height="120" rx="8" fill="#fff7ed" stroke="#c2410c" stroke-width="2"/>
  <text x="630" y="84" text-anchor="middle" font-weight="700" fill="#c2410c">Edge</text>
  <text x="630" y="110" text-anchor="middle" fill="#0f172a">CloudFront</text>
  <text x="630" y="132" text-anchor="middle" fill="#0f172a">Route 53</text>
  <text x="630" y="160" text-anchor="middle" fill="#64748b" font-size="11">near the user</text>
  <line x1="570" y1="120" x2="540" y2="120" stroke="#c2410c" stroke-width="1.5" marker-end="url(#a)"/>
  <defs><marker id="a" markerWidth="8" markerHeight="8" refX="6" refY="4" orient="auto"><path d="M0,0 L8,4 L0,8 z" fill="#c2410c"/></marker></defs>
  <text x="24" y="398" fill="#64748b" font-size="12">Draw the account first, then the Region, then the AZs. Edge locations sit outside all three.</text>
</svg>
